<svg width="18" height="14" viewBox="0 0 18 14" fill="none" xmlns="http://www.w3.org/2000/svg">
<path d="M2.0498 8.73926C2.6159 8.73926 3.0752 9.32677 3.0752 10.0508V12.6729C3.07503 13.3967 2.61579 13.9834 2.0498 13.9834H1.02539C0.4594 13.9834 0.00016466 13.3967 0 12.6729V10.0508C0 9.32677 0.459299 8.73926 1.02539 8.73926H2.0498ZM6.83398 6.11816C7.3999 6.11843 7.8584 6.70487 7.8584 7.42871V12.6729C7.85823 13.3965 7.39979 13.9831 6.83398 13.9834H5.80859C5.2426 13.9834 4.78337 13.3967 4.7832 12.6729V7.42871C4.7832 6.7047 5.2425 6.11816 5.80859 6.11816H6.83398ZM11.6172 3.05859C12.1832 3.05877 12.6416 3.64622 12.6416 4.37012V12.6729C12.6414 13.3966 12.1831 13.9832 11.6172 13.9834H10.5918C10.0259 13.9833 9.56755 13.3966 9.56738 12.6729V4.37012C9.56738 3.64616 10.0258 3.05868 10.5918 3.05859H11.6172ZM16.4004 0C16.9663 9.04383e-05 17.4246 0.586801 17.4248 1.31055V12.6729C17.4246 13.3966 16.9663 13.9833 16.4004 13.9834H15.375C14.8091 13.9832 14.3508 13.3966 14.3506 12.6729V1.31055C14.3508 0.586856 14.8091 0.00017946 15.375 0H16.4004Z" fill="black"/>
</svg>
