<svg width="33" height="11" viewBox="0 0 33 11" fill="none" xmlns="http://www.w3.org/2000/svg">
<path d="M4.21099 0.109375V10.0898H2.39946V2.22168L4.95911e-05 3.01465V1.55176L4.00591 0.109375H4.21099ZM13.8704 4.25879V5.93359C13.8704 6.69922 13.793 7.35319 13.638 7.89551C13.4831 8.43783 13.2598 8.88216 12.9681 9.22852C12.6764 9.57031 12.3278 9.82324 11.9222 9.9873C11.5166 10.1468 11.0654 10.2266 10.5687 10.2266C10.1722 10.2266 9.80306 10.1764 9.46126 10.0762C9.11946 9.97135 8.81185 9.81185 8.53841 9.59766C8.26953 9.37891 8.03711 9.10091 7.84114 8.76367C7.64974 8.42643 7.50162 8.02311 7.39681 7.55371C7.29655 7.08431 7.24642 6.54427 7.24642 5.93359V4.25879C7.24642 3.49316 7.32389 2.84147 7.47884 2.30371C7.63834 1.76595 7.86393 1.32617 8.1556 0.984375C8.44726 0.642578 8.7959 0.394206 9.20149 0.239258C9.60709 0.0797526 10.0583 0 10.555 0C10.9561 0 11.3252 0.0501302 11.6624 0.150391C12.0042 0.250651 12.3096 0.407878 12.5784 0.62207C12.8519 0.831706 13.0843 1.10514 13.2757 1.44238C13.4671 1.77507 13.613 2.17611 13.7132 2.64551C13.818 3.11035 13.8704 3.64811 13.8704 4.25879ZM12.0658 6.17969V4.00586C12.0658 3.62305 12.043 3.29036 11.9974 3.00781C11.9564 2.7207 11.8949 2.47689 11.8128 2.27637C11.7308 2.07585 11.6283 1.91406 11.5052 1.79102C11.3822 1.66341 11.2409 1.56999 11.0814 1.51074C10.9219 1.4515 10.7464 1.42188 10.555 1.42188C10.318 1.42188 10.1061 1.46973 9.91927 1.56543C9.73242 1.65658 9.57519 1.80241 9.44759 2.00293C9.31998 2.20345 9.222 2.47005 9.15364 2.80273C9.08984 3.13086 9.05794 3.5319 9.05794 4.00586V6.17969C9.05794 6.5625 9.07845 6.89746 9.11946 7.18457C9.16504 7.47168 9.22884 7.71777 9.31087 7.92285C9.39746 8.12793 9.5 8.29655 9.61849 8.42871C9.74153 8.55632 9.88281 8.65202 10.0423 8.71582C10.2018 8.77507 10.3773 8.80469 10.5687 8.80469C10.8102 8.80469 11.0221 8.75684 11.2044 8.66113C11.3913 8.56543 11.5485 8.41504 11.6761 8.20996C11.8037 8.00033 11.8994 7.72917 11.9632 7.39648C12.0316 7.05924 12.0658 6.65365 12.0658 6.17969ZM15.1354 9.20801C15.1354 8.93457 15.2288 8.70443 15.4156 8.51758C15.6025 8.33073 15.8554 8.2373 16.1744 8.2373C16.4934 8.2373 16.7464 8.33073 16.9332 8.51758C17.1201 8.70443 17.2135 8.93457 17.2135 9.20801C17.2135 9.47689 17.1201 9.70475 16.9332 9.8916C16.7464 10.0739 16.4934 10.165 16.1744 10.165C15.8554 10.165 15.6025 10.0739 15.4156 9.8916C15.2288 9.70475 15.1354 9.47689 15.1354 9.20801ZM15.1422 3.47266C15.1422 3.19922 15.2356 2.96908 15.4225 2.78223C15.6093 2.59538 15.8622 2.50195 16.1813 2.50195C16.5003 2.50195 16.7532 2.59538 16.94 2.78223C17.1269 2.96908 17.2203 3.19922 17.2203 3.47266C17.2203 3.74154 17.1269 3.9694 16.94 4.15625C16.7532 4.33854 16.5003 4.42969 16.1813 4.42969C15.8622 4.42969 15.6093 4.33854 15.4225 4.15625C15.2356 3.9694 15.1422 3.74154 15.1422 3.47266ZM25.4442 6.45996V7.88184H18.2733L18.1981 6.78809L22.4159 0.136719H23.8583L22.2997 2.78223L20.037 6.45996H25.4442ZM24.2616 0.136719V10.0898H22.4501V0.136719H24.2616ZM28.0422 5.50977L26.5998 5.16113L27.1535 0.136719H32.6291V1.63379H28.6506L28.3908 3.95801C28.5321 3.87142 28.7371 3.78483 29.006 3.69824C29.2795 3.6071 29.5871 3.56152 29.9289 3.56152C30.4028 3.56152 30.8267 3.639 31.2004 3.79395C31.5741 3.94434 31.8908 4.16309 32.1506 4.4502C32.4149 4.7373 32.6131 5.08822 32.7453 5.50293C32.882 5.91309 32.9504 6.37793 32.9504 6.89746C32.9504 7.35319 32.882 7.78158 32.7453 8.18262C32.6131 8.5791 32.4103 8.93229 32.1369 9.24219C31.8634 9.54753 31.5194 9.78906 31.1047 9.9668C30.6899 10.14 30.2023 10.2266 29.6418 10.2266C29.2179 10.2266 28.8101 10.165 28.4181 10.042C28.0308 9.91439 27.6821 9.72982 27.3722 9.48828C27.0623 9.24219 26.814 8.94141 26.6271 8.58594C26.4448 8.23047 26.3446 7.82259 26.3263 7.3623H28.1105C28.1424 7.66764 28.2245 7.92741 28.3566 8.1416C28.4888 8.35579 28.662 8.51986 28.8761 8.63379C29.0949 8.74772 29.3478 8.80469 29.6349 8.80469C29.8947 8.80469 30.118 8.75684 30.3049 8.66113C30.4963 8.56087 30.6535 8.42188 30.7765 8.24414C30.8996 8.06641 30.9907 7.85677 31.05 7.61523C31.1092 7.3737 31.1388 7.10938 31.1388 6.82227C31.1388 6.54427 31.1047 6.29134 31.0363 6.06348C30.9679 5.83105 30.8631 5.63053 30.7218 5.46191C30.5806 5.29329 30.4028 5.16341 30.1886 5.07227C29.979 4.98112 29.7329 4.93555 29.4504 4.93555C29.0721 4.93555 28.7804 4.99251 28.5754 5.10645C28.3748 5.22038 28.1971 5.35482 28.0422 5.50977Z" fill="black"/>
</svg>
