<svg width="16" height="15" viewBox="0 0 16 15" fill="none" xmlns="http://www.w3.org/2000/svg">
<path d="M5.5625 11.0127C6.86996 9.59835 8.78531 9.59835 10.0928 11.0127C10.1584 11.0888 10.1964 11.1963 10.1982 11.3096C10.2 11.4227 10.1656 11.532 10.1025 11.6113L8.05469 14.2539C7.99478 14.3314 7.91329 14.3749 7.82812 14.375C7.74278 14.375 7.66059 14.3315 7.60059 14.2539L5.55273 11.6113C5.48963 11.5319 5.45524 11.4228 5.45703 11.3096C5.4589 11.1963 5.49685 11.0887 5.5625 11.0127ZM2.83105 7.4873C5.64796 4.13613 10.0103 4.13607 12.8271 7.4873C12.8907 7.56588 12.9268 7.67408 12.9277 7.78711C12.9286 7.9 12.8942 8.00873 12.832 8.08887L11.6484 9.61816C11.5265 9.7743 11.3292 9.77789 11.2041 9.62598C10.2792 8.55479 9.0759 7.96098 7.82812 7.96094C6.58106 7.9616 5.37851 8.55543 4.4541 9.62598C4.32899 9.77802 4.13173 9.77434 4.00977 9.61816L2.82617 8.08887C2.76383 8.00882 2.72968 7.90009 2.73047 7.78711C2.7313 7.67399 2.76742 7.56589 2.83105 7.4873ZM0.0986328 3.97168C4.41907 -1.32387 11.2352 -1.32378 15.5557 3.97168C15.6181 4.05026 15.6537 4.15748 15.6543 4.26953C15.6548 4.38166 15.6203 4.48975 15.5586 4.56934L14.374 6.09863C14.252 6.25551 14.0537 6.25784 13.9297 6.10352C12.2837 4.10211 10.0993 2.98562 7.82812 2.98535C5.55665 2.98534 3.37188 4.1019 1.72559 6.10352C1.60171 6.25828 1.40325 6.25582 1.28125 6.09863L0.0957031 4.56934C0.0340085 4.48969 -0.000576727 4.38165 0 4.26953C0.000636567 4.15748 0.0361333 4.05022 0.0986328 3.97168Z" fill="black"/>
</svg>
